<svg width="135" height="40" viewBox="0 0 135 40" fill="none" xmlns="http://www.w3.org/2000/svg">
<path d="M70.6371 13.1L66.5171 27H63.9371L61.0171 16.48L57.9171 27L55.3571 27.02L51.4171 13.1H53.8371L56.7171 24.42L59.8371 13.1H62.3971L65.2971 24.36L68.1971 13.1H70.6371ZM82.6176 21.22C82.6176 21.6333 82.5909 22.0067 82.5376 22.34H74.1176C74.1842 23.22 74.5109 23.9267 75.0976 24.46C75.6842 24.9933 76.4042 25.26 77.2576 25.26C78.4842 25.26 79.3509 24.7467 79.8576 23.72H82.3176C81.9842 24.7333 81.3776 25.5667 80.4976 26.22C79.6309 26.86 78.5509 27.18 77.2576 27.18C76.2042 27.18 75.2576 26.9467 74.4176 26.48C73.5909 26 72.9376 25.3333 72.4576 24.48C71.9909 23.6133 71.7576 22.6133 71.7576 21.48C71.7576 20.3467 71.9842 19.3533 72.4376 18.5C72.9042 17.6333 73.5509 16.9667 74.3776 16.5C75.2176 16.0333 76.1776 15.8 77.2576 15.8C78.2976 15.8 79.2242 16.0267 80.0376 16.48C80.8509 16.9333 81.4842 17.5733 81.9376 18.4C82.3909 19.2133 82.6176 20.1533 82.6176 21.22ZM80.2376 20.5C80.2242 19.66 79.9242 18.9867 79.3376 18.48C78.7509 17.9733 78.0242 17.72 77.1576 17.72C76.3709 17.72 75.6976 17.9733 75.1376 18.48C74.5776 18.9733 74.2442 19.6467 74.1376 20.5H80.2376ZM87.1413 17.62C87.528 17.0867 88.0547 16.6533 88.7213 16.32C89.4013 15.9733 90.1547 15.8 90.9813 15.8C91.9547 15.8 92.8347 16.0333 93.6213 16.5C94.408 16.9667 95.028 17.6333 95.4813 18.5C95.9347 19.3533 96.1613 20.3333 96.1613 21.44C96.1613 22.5467 95.9347 23.54 95.4813 24.42C95.028 25.2867 94.4013 25.9667 93.6013 26.46C92.8147 26.94 91.9413 27.18 90.9813 27.18C90.128 27.18 89.368 27.0133 88.7013 26.68C88.048 26.3467 87.528 25.92 87.1413 25.4V27H84.8613V12.2H87.1413V17.62ZM93.8413 21.44C93.8413 20.68 93.6813 20.0267 93.3613 19.48C93.0547 18.92 92.6413 18.5 92.1213 18.22C91.6147 17.9267 91.068 17.78 90.4813 17.78C89.908 17.78 89.3613 17.9267 88.8413 18.22C88.3347 18.5133 87.9213 18.94 87.6013 19.5C87.2947 20.06 87.1413 20.72 87.1413 21.48C87.1413 22.24 87.2947 22.9067 87.6013 23.48C87.9213 24.04 88.3347 24.4667 88.8413 24.76C89.3613 25.0533 89.908 25.2 90.4813 25.2C91.068 25.2 91.6147 25.0533 92.1213 24.76C92.6413 24.4533 93.0547 24.0133 93.3613 23.44C93.6813 22.8667 93.8413 22.2 93.8413 21.44ZM102.956 13.1C104.436 13.1 105.729 13.3867 106.836 13.96C107.956 14.52 108.816 15.3333 109.416 16.4C110.029 17.4533 110.336 18.6867 110.336 20.1C110.336 21.5133 110.029 22.74 109.416 23.78C108.816 24.82 107.956 25.62 106.836 26.18C105.729 26.7267 104.436 27 102.956 27H98.416V13.1H102.956ZM102.956 25.14C104.583 25.14 105.829 24.7 106.696 23.82C107.563 22.94 107.996 21.7 107.996 20.1C107.996 18.4867 107.563 17.2267 106.696 16.32C105.829 15.4133 104.583 14.96 102.956 14.96H100.696V25.14H102.956ZM122.696 21.22C122.696 21.6333 122.669 22.0067 122.616 22.34H114.196C114.262 23.22 114.589 23.9267 115.176 24.46C115.762 24.9933 116.482 25.26 117.336 25.26C118.562 25.26 119.429 24.7467 119.936 23.72H122.396C122.062 24.7333 121.456 25.5667 120.576 26.22C119.709 26.86 118.629 27.18 117.336 27.18C116.282 27.18 115.336 26.9467 114.496 26.48C113.669 26 113.016 25.3333 112.536 24.48C112.069 23.6133 111.836 22.6133 111.836 21.48C111.836 20.3467 112.062 19.3533 112.516 18.5C112.982 17.6333 113.629 16.9667 114.456 16.5C115.296 16.0333 116.256 15.8 117.336 15.8C118.376 15.8 119.302 16.0267 120.116 16.48C120.929 16.9333 121.562 17.5733 122.016 18.4C122.469 19.2133 122.696 20.1533 122.696 21.22ZM120.316 20.5C120.302 19.66 120.002 18.9867 119.416 18.48C118.829 17.9733 118.102 17.72 117.236 17.72C116.449 17.72 115.776 17.9733 115.216 18.48C114.656 18.9733 114.322 19.6467 114.216 20.5H120.316ZM129.199 24.96L132.319 15.98H134.739L130.539 27H127.819L123.639 15.98H126.079L129.199 24.96Z" fill="#A7B7E7"/>
<circle cx="20" cy="20" r="20" fill="url(#paint0_linear_403_2)"/>
<circle cx="20" cy="20" r="12" fill="url(#paint1_linear_403_2)"/>
<circle cx="20" cy="20" r="7.2" fill="url(#paint2_linear_403_2)"/>
<defs>
<linearGradient id="paint0_linear_403_2" x1="40" y1="-2.375" x2="2.09711e-07" y2="42.375" gradientUnits="userSpaceOnUse">
<stop stop-color="#00BDEC"/>
<stop offset="0.53125" stop-color="#00AAE1"/>
<stop offset="1" stop-color="#436CFF"/>
</linearGradient>
<linearGradient id="paint1_linear_403_2" x1="32" y1="6.575" x2="8" y2="33.425" gradientUnits="userSpaceOnUse">
<stop stop-color="#436CFF"/>
<stop offset="0.53125" stop-color="#00AAE1"/>
<stop offset="1" stop-color="#00BDEC"/>
</linearGradient>
<linearGradient id="paint2_linear_403_2" x1="27.2" y1="11.945" x2="12.8" y2="28.055" gradientUnits="userSpaceOnUse">
<stop stop-color="#00BDEC"/>
<stop offset="0.53125" stop-color="#00AAE1"/>
<stop offset="1" stop-color="#436CFF"/>
</linearGradient>
</defs>
</svg>
